<?xml version="1.0" encoding="utf-8"?>
<!-- Generator: Adobe Illustrator 16.0.0, SVG Export Plug-In . SVG Version: 6.00 Build 0)  -->
<!DOCTYPE svg PUBLIC "-//W3C//DTD SVG 1.1//EN" "http://www.w3.org/Graphics/SVG/1.1/DTD/svg11.dtd">
<svg version="1.1" id="Layer_1" xmlns="http://www.w3.org/2000/svg" xmlns:xlink="http://www.w3.org/1999/xlink" x="0px" y="0px"
	 width="81.962px" height="40px" viewBox="0 0 81.962 40" style="enable-background:new 0 0 81.962 40;" xml:space="preserve">
<style type="text/css">
<![CDATA[
	.st0{fill:#FFFFFF;}
]]>
</style>
<path class="st0" d="M25.495,0H4.091C2.576,0.012,1.354,1.243,1.354,2.759c0,1.516,1.222,2.747,2.737,2.758h12.127
	C17.27,5.53,18.12,6.388,18.12,7.443c0,0.391-0.118,0.756-0.319,1.06C17.789,8.52,0.517,35.628,0.517,35.628
	c-0.059,0.084-0.115,0.17-0.165,0.26l-0.006,0.007v0.002C0.126,36.293,0,36.75,0,37.235c0,1.505,1.207,2.729,2.704,2.758v0h22.791
	c1.505-0.022,2.717-1.248,2.717-2.759c0-1.509-1.211-2.733-2.717-2.758h-0.048H12.059c-1.063,0-1.925-0.863-1.925-1.927
	c0-0.322,0.08-0.624,0.219-0.893L27.845,4.206l-0.001-0.001c0.261-0.42,0.411-0.915,0.411-1.446C28.254,1.235,27.019,0,25.495,0"/>
<path class="st0" d="M54.431,0h-0.018H33.089h-0.003c-1.524,0-2.759,1.235-2.759,2.759c0,1.523,1.235,2.759,2.759,2.759h0.002h0.001
	h4.823c1.52,0,2.753,1.232,2.753,2.753V36.88v0.007c0,1.713,1.389,3.102,3.102,3.102c1.713,0,3.103-1.388,3.103-3.102V8.271
	c0-1.521,1.232-2.753,2.754-2.753h4.807c1.524,0,2.76-1.236,2.76-2.759C57.19,1.235,55.955,0,54.431,0"/>
<path class="st0" d="M79.2,34.479c-0.027,0-10.984,0.002-10.984,0.002c-1.515,0-2.745-1.222-2.758-2.733v-6.22v-0.036
	c0-1.523,1.236-2.758,2.761-2.758h0.001h8.948c1.522,0,2.758-1.236,2.758-2.76s-1.235-2.758-2.758-2.758h-8.979
	c-1.511-0.016-2.73-1.245-2.73-2.761v-0.011V8.233c0.021-1.503,1.248-2.715,2.757-2.715h0.005h11.015V5.517
	c1.509-0.017,2.727-1.246,2.727-2.758c0-1.514-1.218-2.741-2.727-2.758V0H62.01c-1.524,0-2.759,1.235-2.759,2.759
	c0,0.04,0.002,0.079,0.003,0.119v34.245c-0.001,0.039-0.003,0.077-0.003,0.118c0,1.516,1.221,2.743,2.729,2.76h17.254
	c1.506-0.02,2.724-1.249,2.724-2.762C81.959,35.713,80.724,34.479,79.2,34.479"/>
</svg>
